<mxfile host="app.diagrams.net" agent="Mozilla/5.0 (Windows NT 10.0; Win64; x64) AppleWebKit/537.36 (KHTML, like Gecko) Chrome/129.0.0.0 Safari/537.36" version="24.8.0">
  <diagram name="Page-1" id="IuMvb5TSBdsUTq7tfXT2">
    <mxGraphModel dx="-2056" dy="2442" grid="1" gridSize="10" guides="1" tooltips="1" connect="1" arrows="1" fold="1" page="1" pageScale="1" pageWidth="850" pageHeight="1100" math="0" shadow="0">
      <root>
        <mxCell id="0" />
        <mxCell id="1" parent="0" />
        <mxCell id="gpuonTUBGZmMLwTa-9xW-1" value="" style="group" vertex="1" connectable="0" parent="1">
          <mxGeometry x="5257" y="-1040" width="536" height="980" as="geometry" />
        </mxCell>
        <mxCell id="gpuonTUBGZmMLwTa-9xW-2" style="edgeStyle=orthogonalEdgeStyle;rounded=0;orthogonalLoop=1;jettySize=auto;html=1;exitX=1;exitY=0.5;exitDx=0;exitDy=0;entryX=0;entryY=0.5;entryDx=0;entryDy=0;" edge="1" parent="gpuonTUBGZmMLwTa-9xW-1" source="gpuonTUBGZmMLwTa-9xW-4" target="gpuonTUBGZmMLwTa-9xW-18">
          <mxGeometry relative="1" as="geometry" />
        </mxCell>
        <mxCell id="gpuonTUBGZmMLwTa-9xW-3" style="edgeStyle=orthogonalEdgeStyle;rounded=0;orthogonalLoop=1;jettySize=auto;html=1;exitX=0;exitY=0.5;exitDx=0;exitDy=0;entryX=0;entryY=0.5;entryDx=0;entryDy=0;" edge="1" parent="gpuonTUBGZmMLwTa-9xW-1" source="gpuonTUBGZmMLwTa-9xW-4" target="gpuonTUBGZmMLwTa-9xW-25">
          <mxGeometry relative="1" as="geometry" />
        </mxCell>
        <mxCell id="gpuonTUBGZmMLwTa-9xW-4" value="i &amp;lt; size" style="rhombus;whiteSpace=wrap;html=1;" vertex="1" parent="gpuonTUBGZmMLwTa-9xW-1">
          <mxGeometry x="45" y="220" width="150" height="80" as="geometry" />
        </mxCell>
        <mxCell id="gpuonTUBGZmMLwTa-9xW-5" style="edgeStyle=orthogonalEdgeStyle;rounded=0;orthogonalLoop=1;jettySize=auto;html=1;exitX=0.5;exitY=1;exitDx=0;exitDy=0;" edge="1" parent="gpuonTUBGZmMLwTa-9xW-1" source="gpuonTUBGZmMLwTa-9xW-6">
          <mxGeometry relative="1" as="geometry">
            <mxPoint x="180" y="350" as="targetPoint" />
            <Array as="points">
              <mxPoint x="463" y="350" />
            </Array>
          </mxGeometry>
        </mxCell>
        <mxCell id="gpuonTUBGZmMLwTa-9xW-6" value="Output -&amp;nbsp;&lt;div&gt;green dot&lt;/div&gt;" style="shape=parallelogram;perimeter=parallelogramPerimeter;whiteSpace=wrap;html=1;fixedSize=1;rounded=0;" vertex="1" parent="gpuonTUBGZmMLwTa-9xW-1">
          <mxGeometry x="390" y="230" width="146" height="60" as="geometry" />
        </mxCell>
        <mxCell id="gpuonTUBGZmMLwTa-9xW-7" style="edgeStyle=orthogonalEdgeStyle;rounded=0;orthogonalLoop=1;jettySize=auto;html=1;exitX=0.5;exitY=1;exitDx=0;exitDy=0;entryX=0.5;entryY=0;entryDx=0;entryDy=0;" edge="1" parent="gpuonTUBGZmMLwTa-9xW-1" source="gpuonTUBGZmMLwTa-9xW-8" target="gpuonTUBGZmMLwTa-9xW-11">
          <mxGeometry relative="1" as="geometry" />
        </mxCell>
        <mxCell id="gpuonTUBGZmMLwTa-9xW-8" value="Start Result" style="ellipse;whiteSpace=wrap;html=1;" vertex="1" parent="gpuonTUBGZmMLwTa-9xW-1">
          <mxGeometry x="60" width="120" height="40" as="geometry" />
        </mxCell>
        <mxCell id="gpuonTUBGZmMLwTa-9xW-9" value="End Result" style="ellipse;whiteSpace=wrap;html=1;" vertex="1" parent="gpuonTUBGZmMLwTa-9xW-1">
          <mxGeometry x="403" y="930" width="120" height="40" as="geometry" />
        </mxCell>
        <mxCell id="gpuonTUBGZmMLwTa-9xW-10" style="edgeStyle=orthogonalEdgeStyle;rounded=0;orthogonalLoop=1;jettySize=auto;html=1;exitX=0.5;exitY=1;exitDx=0;exitDy=0;entryX=0.5;entryY=0;entryDx=0;entryDy=0;" edge="1" parent="gpuonTUBGZmMLwTa-9xW-1" source="gpuonTUBGZmMLwTa-9xW-11" target="gpuonTUBGZmMLwTa-9xW-13">
          <mxGeometry relative="1" as="geometry" />
        </mxCell>
        <mxCell id="gpuonTUBGZmMLwTa-9xW-11" value="declare strings for&lt;div&gt;colors &amp;amp; dot&lt;/div&gt;" style="rounded=0;whiteSpace=wrap;html=1;" vertex="1" parent="gpuonTUBGZmMLwTa-9xW-1">
          <mxGeometry x="60" y="60" width="120" height="60" as="geometry" />
        </mxCell>
        <mxCell id="gpuonTUBGZmMLwTa-9xW-12" style="edgeStyle=orthogonalEdgeStyle;rounded=0;orthogonalLoop=1;jettySize=auto;html=1;exitX=0.5;exitY=1;exitDx=0;exitDy=0;entryX=0.5;entryY=0;entryDx=0;entryDy=0;" edge="1" parent="gpuonTUBGZmMLwTa-9xW-1" source="gpuonTUBGZmMLwTa-9xW-13" target="gpuonTUBGZmMLwTa-9xW-4">
          <mxGeometry relative="1" as="geometry" />
        </mxCell>
        <mxCell id="gpuonTUBGZmMLwTa-9xW-13" value="i = 0" style="rounded=0;whiteSpace=wrap;html=1;" vertex="1" parent="gpuonTUBGZmMLwTa-9xW-1">
          <mxGeometry x="60" y="140" width="120" height="60" as="geometry" />
        </mxCell>
        <mxCell id="gpuonTUBGZmMLwTa-9xW-14" style="edgeStyle=orthogonalEdgeStyle;rounded=0;orthogonalLoop=1;jettySize=auto;html=1;exitX=0.5;exitY=0;exitDx=0;exitDy=0;entryX=0.5;entryY=1;entryDx=0;entryDy=0;" edge="1" parent="gpuonTUBGZmMLwTa-9xW-1" source="gpuonTUBGZmMLwTa-9xW-15" target="gpuonTUBGZmMLwTa-9xW-4">
          <mxGeometry relative="1" as="geometry" />
        </mxCell>
        <mxCell id="gpuonTUBGZmMLwTa-9xW-15" value="i++" style="rounded=0;whiteSpace=wrap;html=1;" vertex="1" parent="gpuonTUBGZmMLwTa-9xW-1">
          <mxGeometry x="60" y="320" width="120" height="60" as="geometry" />
        </mxCell>
        <mxCell id="gpuonTUBGZmMLwTa-9xW-16" style="edgeStyle=orthogonalEdgeStyle;rounded=0;orthogonalLoop=1;jettySize=auto;html=1;exitX=1;exitY=0.5;exitDx=0;exitDy=0;entryX=0;entryY=0.5;entryDx=0;entryDy=0;" edge="1" parent="gpuonTUBGZmMLwTa-9xW-1" source="gpuonTUBGZmMLwTa-9xW-18" target="gpuonTUBGZmMLwTa-9xW-6">
          <mxGeometry relative="1" as="geometry" />
        </mxCell>
        <mxCell id="gpuonTUBGZmMLwTa-9xW-17" style="edgeStyle=orthogonalEdgeStyle;rounded=0;orthogonalLoop=1;jettySize=auto;html=1;exitX=0.5;exitY=1;exitDx=0;exitDy=0;entryX=1;entryY=0.5;entryDx=0;entryDy=0;" edge="1" parent="gpuonTUBGZmMLwTa-9xW-1" source="gpuonTUBGZmMLwTa-9xW-18" target="gpuonTUBGZmMLwTa-9xW-15">
          <mxGeometry relative="1" as="geometry" />
        </mxCell>
        <mxCell id="gpuonTUBGZmMLwTa-9xW-18" value="if&lt;div&gt;exact[i]&lt;/div&gt;" style="rhombus;whiteSpace=wrap;html=1;" vertex="1" parent="gpuonTUBGZmMLwTa-9xW-1">
          <mxGeometry x="220" y="220" width="150" height="80" as="geometry" />
        </mxCell>
        <mxCell id="gpuonTUBGZmMLwTa-9xW-19" style="edgeStyle=orthogonalEdgeStyle;rounded=0;orthogonalLoop=1;jettySize=auto;html=1;exitX=1;exitY=0.5;exitDx=0;exitDy=0;entryX=0;entryY=0.5;entryDx=0;entryDy=0;" edge="1" parent="gpuonTUBGZmMLwTa-9xW-1" source="gpuonTUBGZmMLwTa-9xW-21" target="gpuonTUBGZmMLwTa-9xW-30">
          <mxGeometry relative="1" as="geometry" />
        </mxCell>
        <mxCell id="gpuonTUBGZmMLwTa-9xW-20" style="edgeStyle=orthogonalEdgeStyle;rounded=0;orthogonalLoop=1;jettySize=auto;html=1;exitX=0;exitY=0.5;exitDx=0;exitDy=0;entryX=0;entryY=0.5;entryDx=0;entryDy=0;" edge="1" parent="gpuonTUBGZmMLwTa-9xW-1" source="gpuonTUBGZmMLwTa-9xW-21" target="gpuonTUBGZmMLwTa-9xW-37">
          <mxGeometry relative="1" as="geometry" />
        </mxCell>
        <mxCell id="gpuonTUBGZmMLwTa-9xW-21" value="i &amp;lt; size" style="rhombus;whiteSpace=wrap;html=1;" vertex="1" parent="gpuonTUBGZmMLwTa-9xW-1">
          <mxGeometry x="45" y="480" width="150" height="80" as="geometry" />
        </mxCell>
        <mxCell id="gpuonTUBGZmMLwTa-9xW-22" style="edgeStyle=orthogonalEdgeStyle;rounded=0;orthogonalLoop=1;jettySize=auto;html=1;exitX=0.5;exitY=1;exitDx=0;exitDy=0;entryX=1;entryY=0.5;entryDx=0;entryDy=0;" edge="1" parent="gpuonTUBGZmMLwTa-9xW-1" source="gpuonTUBGZmMLwTa-9xW-23" target="gpuonTUBGZmMLwTa-9xW-27">
          <mxGeometry relative="1" as="geometry" />
        </mxCell>
        <mxCell id="gpuonTUBGZmMLwTa-9xW-23" value="Output -&amp;nbsp;&lt;div&gt;yellow dot&lt;/div&gt;" style="shape=parallelogram;perimeter=parallelogramPerimeter;whiteSpace=wrap;html=1;fixedSize=1;rounded=0;" vertex="1" parent="gpuonTUBGZmMLwTa-9xW-1">
          <mxGeometry x="390" y="490" width="146" height="60" as="geometry" />
        </mxCell>
        <mxCell id="gpuonTUBGZmMLwTa-9xW-24" style="edgeStyle=orthogonalEdgeStyle;rounded=0;orthogonalLoop=1;jettySize=auto;html=1;exitX=0.5;exitY=1;exitDx=0;exitDy=0;entryX=0.5;entryY=0;entryDx=0;entryDy=0;" edge="1" parent="gpuonTUBGZmMLwTa-9xW-1" source="gpuonTUBGZmMLwTa-9xW-25" target="gpuonTUBGZmMLwTa-9xW-21">
          <mxGeometry relative="1" as="geometry" />
        </mxCell>
        <mxCell id="gpuonTUBGZmMLwTa-9xW-25" value="i = 0" style="rounded=0;whiteSpace=wrap;html=1;" vertex="1" parent="gpuonTUBGZmMLwTa-9xW-1">
          <mxGeometry x="60" y="400" width="120" height="60" as="geometry" />
        </mxCell>
        <mxCell id="gpuonTUBGZmMLwTa-9xW-26" style="edgeStyle=orthogonalEdgeStyle;rounded=0;orthogonalLoop=1;jettySize=auto;html=1;exitX=0.5;exitY=0;exitDx=0;exitDy=0;entryX=0.5;entryY=1;entryDx=0;entryDy=0;" edge="1" parent="gpuonTUBGZmMLwTa-9xW-1" source="gpuonTUBGZmMLwTa-9xW-27" target="gpuonTUBGZmMLwTa-9xW-21">
          <mxGeometry relative="1" as="geometry" />
        </mxCell>
        <mxCell id="gpuonTUBGZmMLwTa-9xW-27" value="i++" style="rounded=0;whiteSpace=wrap;html=1;" vertex="1" parent="gpuonTUBGZmMLwTa-9xW-1">
          <mxGeometry x="60" y="580" width="120" height="60" as="geometry" />
        </mxCell>
        <mxCell id="gpuonTUBGZmMLwTa-9xW-28" style="edgeStyle=orthogonalEdgeStyle;rounded=0;orthogonalLoop=1;jettySize=auto;html=1;exitX=1;exitY=0.5;exitDx=0;exitDy=0;entryX=0;entryY=0.5;entryDx=0;entryDy=0;" edge="1" parent="gpuonTUBGZmMLwTa-9xW-1" source="gpuonTUBGZmMLwTa-9xW-30" target="gpuonTUBGZmMLwTa-9xW-23">
          <mxGeometry relative="1" as="geometry" />
        </mxCell>
        <mxCell id="gpuonTUBGZmMLwTa-9xW-29" style="edgeStyle=orthogonalEdgeStyle;rounded=0;orthogonalLoop=1;jettySize=auto;html=1;exitX=0.5;exitY=1;exitDx=0;exitDy=0;entryX=1;entryY=0.5;entryDx=0;entryDy=0;" edge="1" parent="gpuonTUBGZmMLwTa-9xW-1" source="gpuonTUBGZmMLwTa-9xW-30" target="gpuonTUBGZmMLwTa-9xW-27">
          <mxGeometry relative="1" as="geometry" />
        </mxCell>
        <mxCell id="gpuonTUBGZmMLwTa-9xW-30" value="if&lt;div&gt;partial[i] &amp;amp;&amp;amp; !exact[i]&lt;/div&gt;&lt;div&gt;&lt;br&gt;&lt;/div&gt;" style="rhombus;whiteSpace=wrap;html=1;" vertex="1" parent="gpuonTUBGZmMLwTa-9xW-1">
          <mxGeometry x="220" y="480" width="150" height="80" as="geometry" />
        </mxCell>
        <mxCell id="gpuonTUBGZmMLwTa-9xW-31" style="edgeStyle=orthogonalEdgeStyle;rounded=0;orthogonalLoop=1;jettySize=auto;html=1;exitX=1;exitY=0.5;exitDx=0;exitDy=0;entryX=0;entryY=0.5;entryDx=0;entryDy=0;" edge="1" parent="gpuonTUBGZmMLwTa-9xW-1" source="gpuonTUBGZmMLwTa-9xW-33" target="gpuonTUBGZmMLwTa-9xW-42">
          <mxGeometry relative="1" as="geometry" />
        </mxCell>
        <mxCell id="gpuonTUBGZmMLwTa-9xW-32" style="edgeStyle=orthogonalEdgeStyle;rounded=0;orthogonalLoop=1;jettySize=auto;html=1;exitX=0;exitY=0.5;exitDx=0;exitDy=0;entryX=0;entryY=0.5;entryDx=0;entryDy=0;" edge="1" parent="gpuonTUBGZmMLwTa-9xW-1" source="gpuonTUBGZmMLwTa-9xW-33" target="gpuonTUBGZmMLwTa-9xW-44">
          <mxGeometry relative="1" as="geometry">
            <Array as="points">
              <mxPoint x="25" y="780" />
              <mxPoint x="25" y="950" />
            </Array>
          </mxGeometry>
        </mxCell>
        <mxCell id="gpuonTUBGZmMLwTa-9xW-33" value="i &amp;lt; size" style="rhombus;whiteSpace=wrap;html=1;" vertex="1" parent="gpuonTUBGZmMLwTa-9xW-1">
          <mxGeometry x="45" y="740" width="150" height="80" as="geometry" />
        </mxCell>
        <mxCell id="gpuonTUBGZmMLwTa-9xW-34" style="edgeStyle=orthogonalEdgeStyle;rounded=0;orthogonalLoop=1;jettySize=auto;html=1;exitX=0.5;exitY=1;exitDx=0;exitDy=0;entryX=1;entryY=0.5;entryDx=0;entryDy=0;" edge="1" parent="gpuonTUBGZmMLwTa-9xW-1" source="gpuonTUBGZmMLwTa-9xW-35" target="gpuonTUBGZmMLwTa-9xW-39">
          <mxGeometry relative="1" as="geometry" />
        </mxCell>
        <mxCell id="gpuonTUBGZmMLwTa-9xW-35" value="Output -&amp;nbsp;&lt;div&gt;red dot&lt;/div&gt;" style="shape=parallelogram;perimeter=parallelogramPerimeter;whiteSpace=wrap;html=1;fixedSize=1;rounded=0;" vertex="1" parent="gpuonTUBGZmMLwTa-9xW-1">
          <mxGeometry x="390" y="750" width="146" height="60" as="geometry" />
        </mxCell>
        <mxCell id="gpuonTUBGZmMLwTa-9xW-36" style="edgeStyle=orthogonalEdgeStyle;rounded=0;orthogonalLoop=1;jettySize=auto;html=1;exitX=0.5;exitY=1;exitDx=0;exitDy=0;entryX=0.5;entryY=0;entryDx=0;entryDy=0;" edge="1" parent="gpuonTUBGZmMLwTa-9xW-1" source="gpuonTUBGZmMLwTa-9xW-37" target="gpuonTUBGZmMLwTa-9xW-33">
          <mxGeometry relative="1" as="geometry" />
        </mxCell>
        <mxCell id="gpuonTUBGZmMLwTa-9xW-37" value="i = 0" style="rounded=0;whiteSpace=wrap;html=1;" vertex="1" parent="gpuonTUBGZmMLwTa-9xW-1">
          <mxGeometry x="60" y="660" width="120" height="60" as="geometry" />
        </mxCell>
        <mxCell id="gpuonTUBGZmMLwTa-9xW-38" style="edgeStyle=orthogonalEdgeStyle;rounded=0;orthogonalLoop=1;jettySize=auto;html=1;exitX=0.5;exitY=0;exitDx=0;exitDy=0;entryX=0.5;entryY=1;entryDx=0;entryDy=0;" edge="1" parent="gpuonTUBGZmMLwTa-9xW-1" source="gpuonTUBGZmMLwTa-9xW-39" target="gpuonTUBGZmMLwTa-9xW-33">
          <mxGeometry relative="1" as="geometry" />
        </mxCell>
        <mxCell id="gpuonTUBGZmMLwTa-9xW-39" value="i++" style="rounded=0;whiteSpace=wrap;html=1;" vertex="1" parent="gpuonTUBGZmMLwTa-9xW-1">
          <mxGeometry x="60" y="840" width="120" height="60" as="geometry" />
        </mxCell>
        <mxCell id="gpuonTUBGZmMLwTa-9xW-40" style="edgeStyle=orthogonalEdgeStyle;rounded=0;orthogonalLoop=1;jettySize=auto;html=1;exitX=1;exitY=0.5;exitDx=0;exitDy=0;entryX=0;entryY=0.5;entryDx=0;entryDy=0;" edge="1" parent="gpuonTUBGZmMLwTa-9xW-1" source="gpuonTUBGZmMLwTa-9xW-42" target="gpuonTUBGZmMLwTa-9xW-35">
          <mxGeometry relative="1" as="geometry" />
        </mxCell>
        <mxCell id="gpuonTUBGZmMLwTa-9xW-41" style="edgeStyle=orthogonalEdgeStyle;rounded=0;orthogonalLoop=1;jettySize=auto;html=1;exitX=0.5;exitY=1;exitDx=0;exitDy=0;entryX=1;entryY=0.5;entryDx=0;entryDy=0;" edge="1" parent="gpuonTUBGZmMLwTa-9xW-1" source="gpuonTUBGZmMLwTa-9xW-42" target="gpuonTUBGZmMLwTa-9xW-39">
          <mxGeometry relative="1" as="geometry" />
        </mxCell>
        <mxCell id="gpuonTUBGZmMLwTa-9xW-42" value="if&lt;div&gt;!partial[i] &amp;amp;&amp;amp; !exact[i]&lt;/div&gt;&lt;div&gt;&lt;br&gt;&lt;/div&gt;" style="rhombus;whiteSpace=wrap;html=1;" vertex="1" parent="gpuonTUBGZmMLwTa-9xW-1">
          <mxGeometry x="220" y="740" width="150" height="80" as="geometry" />
        </mxCell>
        <mxCell id="gpuonTUBGZmMLwTa-9xW-43" style="edgeStyle=orthogonalEdgeStyle;rounded=0;orthogonalLoop=1;jettySize=auto;html=1;exitX=1;exitY=0.5;exitDx=0;exitDy=0;entryX=0;entryY=0.5;entryDx=0;entryDy=0;" edge="1" parent="gpuonTUBGZmMLwTa-9xW-1" source="gpuonTUBGZmMLwTa-9xW-44" target="gpuonTUBGZmMLwTa-9xW-9">
          <mxGeometry relative="1" as="geometry" />
        </mxCell>
        <mxCell id="gpuonTUBGZmMLwTa-9xW-44" value="Output -&amp;nbsp;&lt;div&gt;green dot&lt;/div&gt;" style="shape=parallelogram;perimeter=parallelogramPerimeter;whiteSpace=wrap;html=1;fixedSize=1;rounded=0;" vertex="1" parent="gpuonTUBGZmMLwTa-9xW-1">
          <mxGeometry x="47" y="920" width="146" height="60" as="geometry" />
        </mxCell>
        <mxCell id="gpuonTUBGZmMLwTa-9xW-45" value="No" style="text;html=1;strokeColor=none;fillColor=none;align=center;verticalAlign=middle;whiteSpace=wrap;rounded=0;" vertex="1" parent="gpuonTUBGZmMLwTa-9xW-1">
          <mxGeometry x="180" y="230" width="60" height="30" as="geometry" />
        </mxCell>
        <mxCell id="gpuonTUBGZmMLwTa-9xW-46" value="Yes" style="text;html=1;strokeColor=none;fillColor=none;align=center;verticalAlign=middle;whiteSpace=wrap;rounded=0;" vertex="1" parent="gpuonTUBGZmMLwTa-9xW-1">
          <mxGeometry y="230" width="60" height="30" as="geometry" />
        </mxCell>
        <mxCell id="gpuonTUBGZmMLwTa-9xW-47" value="No" style="text;html=1;strokeColor=none;fillColor=none;align=center;verticalAlign=middle;whiteSpace=wrap;rounded=0;" vertex="1" parent="gpuonTUBGZmMLwTa-9xW-1">
          <mxGeometry x="343" y="230" width="60" height="30" as="geometry" />
        </mxCell>
        <mxCell id="gpuonTUBGZmMLwTa-9xW-48" value="Yes" style="text;html=1;strokeColor=none;fillColor=none;align=center;verticalAlign=middle;whiteSpace=wrap;rounded=0;" vertex="1" parent="gpuonTUBGZmMLwTa-9xW-1">
          <mxGeometry x="250" y="310" width="60" height="30" as="geometry" />
        </mxCell>
        <mxCell id="gpuonTUBGZmMLwTa-9xW-49" value="No" style="text;html=1;strokeColor=none;fillColor=none;align=center;verticalAlign=middle;whiteSpace=wrap;rounded=0;" vertex="1" parent="gpuonTUBGZmMLwTa-9xW-1">
          <mxGeometry x="180" y="490" width="60" height="30" as="geometry" />
        </mxCell>
        <mxCell id="gpuonTUBGZmMLwTa-9xW-50" value="Yes" style="text;html=1;strokeColor=none;fillColor=none;align=center;verticalAlign=middle;whiteSpace=wrap;rounded=0;" vertex="1" parent="gpuonTUBGZmMLwTa-9xW-1">
          <mxGeometry x="250" y="560" width="60" height="30" as="geometry" />
        </mxCell>
        <mxCell id="gpuonTUBGZmMLwTa-9xW-51" value="No" style="text;html=1;strokeColor=none;fillColor=none;align=center;verticalAlign=middle;whiteSpace=wrap;rounded=0;" vertex="1" parent="gpuonTUBGZmMLwTa-9xW-1">
          <mxGeometry x="350" y="490" width="60" height="30" as="geometry" />
        </mxCell>
        <mxCell id="gpuonTUBGZmMLwTa-9xW-52" value="Yes" style="text;html=1;strokeColor=none;fillColor=none;align=center;verticalAlign=middle;whiteSpace=wrap;rounded=0;" vertex="1" parent="gpuonTUBGZmMLwTa-9xW-1">
          <mxGeometry y="490" width="60" height="30" as="geometry" />
        </mxCell>
        <mxCell id="gpuonTUBGZmMLwTa-9xW-53" value="No" style="text;html=1;strokeColor=none;fillColor=none;align=center;verticalAlign=middle;whiteSpace=wrap;rounded=0;" vertex="1" parent="gpuonTUBGZmMLwTa-9xW-1">
          <mxGeometry x="180" y="750" width="60" height="30" as="geometry" />
        </mxCell>
        <mxCell id="gpuonTUBGZmMLwTa-9xW-54" value="Yes" style="text;html=1;strokeColor=none;fillColor=none;align=center;verticalAlign=middle;whiteSpace=wrap;rounded=0;" vertex="1" parent="gpuonTUBGZmMLwTa-9xW-1">
          <mxGeometry x="250" y="820" width="60" height="30" as="geometry" />
        </mxCell>
        <mxCell id="gpuonTUBGZmMLwTa-9xW-55" value="No" style="text;html=1;strokeColor=none;fillColor=none;align=center;verticalAlign=middle;whiteSpace=wrap;rounded=0;" vertex="1" parent="gpuonTUBGZmMLwTa-9xW-1">
          <mxGeometry x="350" y="750" width="60" height="30" as="geometry" />
        </mxCell>
        <mxCell id="gpuonTUBGZmMLwTa-9xW-56" value="Yes" style="text;html=1;strokeColor=none;fillColor=none;align=center;verticalAlign=middle;whiteSpace=wrap;rounded=0;" vertex="1" parent="gpuonTUBGZmMLwTa-9xW-1">
          <mxGeometry y="750" width="60" height="30" as="geometry" />
        </mxCell>
      </root>
    </mxGraphModel>
  </diagram>
</mxfile>
